<svg viewBox="0 0 416 119" fill="none" xmlns="http://www.w3.org/2000/svg">
<path d="M416 0H240.316V118.113H416V0Z" fill="#1D69AB"/>
<path d="M68.1105 45.9531L66.4501 48.6878C65.4735 47.5809 64.1712 46.6856 62.5434 46.002C60.9156 45.3183 59.06 44.9765 56.9764 44.9765C53.9161 44.9765 51.6861 45.5543 50.2862 46.7101C48.8863 47.8658 48.1863 49.4366 48.1863 51.4225C48.1863 52.4643 48.3735 53.3189 48.7479 53.9863C49.1223 54.6537 49.7002 55.2315 50.4815 55.7199C51.2628 56.2082 52.2639 56.6314 53.4848 56.9896C54.7056 57.3477 56.1462 57.7058 57.8066 58.0639C59.6622 58.4546 61.3307 58.8941 62.812 59.3824C64.2933 59.8707 65.5548 60.4812 66.5966 61.2137C67.6384 61.9462 68.436 62.8333 68.9895 63.8751C69.5429 64.9169 69.8197 66.2191 69.8197 67.7818C69.8197 69.3771 69.5104 70.7607 68.8918 71.9327C68.2733 73.1047 67.4105 74.0814 66.3036 74.8627C65.1967 75.6441 63.8782 76.2219 62.3481 76.5963C60.818 76.9707 59.1413 77.1579 57.3182 77.1579C51.9465 77.1579 47.3073 75.4813 43.4006 72.128L45.1098 69.3445C45.7283 69.9956 46.469 70.6142 47.3317 71.2002C48.1945 71.7862 49.1549 72.2989 50.2129 72.7384C51.271 73.1779 52.4023 73.5198 53.6069 73.764C54.8114 74.0081 56.0811 74.1302 57.4159 74.1302C60.1831 74.1302 62.34 73.6337 63.8864 72.6408C65.4328 71.6478 66.206 70.1421 66.206 68.1237C66.206 67.0493 65.9862 66.1459 65.5467 65.4134C65.1072 64.6809 64.448 64.046 63.569 63.5089C62.6899 62.9717 61.5993 62.5078 60.2971 62.1171C58.9948 61.7264 57.481 61.3358 55.7556 60.9451C53.9324 60.5219 52.3372 60.0824 50.9698 59.6266C49.6025 59.1708 48.4468 58.6011 47.5027 57.9174C46.5585 57.2337 45.8504 56.4117 45.3784 55.4513C44.9063 54.4909 44.6703 53.3107 44.6703 51.9108C44.6703 50.3156 44.9714 48.8913 45.5737 47.6379C46.176 46.3845 47.0306 45.3427 48.1375 44.5125C49.2444 43.6824 50.5466 43.0475 52.0442 42.608C53.5418 42.1685 55.2021 41.9488 57.0252 41.9488C59.3367 41.9488 61.3958 42.2987 63.2027 42.9987C65.0095 43.6986 66.6455 44.6835 68.1105 45.9531ZM79.2446 76.8649H75.8262V42.1929H90.1833C91.6809 42.1929 93.0564 42.5103 94.3098 43.1452C95.5632 43.78 96.6457 44.6102 97.5572 45.6357C98.4688 46.6612 99.185 47.8251 99.7059 49.1273C100.227 50.4296 100.487 51.7481 100.487 53.0829C100.487 54.5153 100.243 55.8908 99.7548 57.2093C99.2664 58.5278 98.5827 59.6917 97.7037 60.7009C96.8247 61.7102 95.7748 62.524 94.554 63.1426C93.3331 63.7612 91.9739 64.0705 90.4763 64.0705H79.2446V76.8649ZM79.2446 45.2206V61.0428H90.3298C91.3391 61.0428 92.2588 60.823 93.0889 60.3835C93.9191 59.944 94.6272 59.358 95.2132 58.6255C95.7992 57.893 96.255 57.0465 96.5806 56.0861C96.9061 55.1257 97.0689 54.1246 97.0689 53.0829C97.0689 52.0085 96.8817 50.9911 96.5073 50.0307C96.1329 49.0703 95.6283 48.232 94.9935 47.5158C94.3586 46.7996 93.6098 46.238 92.7471 45.831C91.8844 45.4241 90.981 45.2206 90.0368 45.2206H79.2446ZM100.243 76.8649L114.747 42.1929H117.628L132.034 76.8649H128.42L123.927 66.0238H108.349L103.906 76.8649H100.243ZM109.082 63.3379H123.146L116.163 46.1973L109.082 63.3379ZM133.45 59.2847C133.45 57.2012 133.816 55.1257 134.549 53.0584C135.281 50.9911 136.348 49.1436 137.747 47.5158C139.147 45.888 140.873 44.5614 142.924 43.5359C144.975 42.5103 147.303 41.9976 149.907 41.9976C153 41.9976 155.645 42.6975 157.842 44.0974C160.04 45.4973 161.66 47.3205 162.701 49.5668L160.016 51.2272C159.462 50.0877 158.787 49.1273 157.989 48.346C157.191 47.5646 156.337 46.9298 155.425 46.4415C154.514 45.9531 153.57 45.6032 152.593 45.3915C151.616 45.1799 150.656 45.0741 149.712 45.0741C147.628 45.0741 145.789 45.4973 144.193 46.3438C142.598 47.1903 141.255 48.2971 140.165 49.6645C139.074 51.0318 138.252 52.5701 137.699 54.2793C137.145 55.9885 136.868 57.7221 136.868 59.4801C136.868 61.4009 137.202 63.2403 137.869 64.9983C138.537 66.7563 139.448 68.3108 140.604 69.6619C141.76 71.013 143.127 72.0873 144.706 72.8849C146.285 73.6826 148.002 74.0814 149.858 74.0814C150.835 74.0814 151.836 73.9593 152.861 73.7151C153.887 73.4709 154.88 73.0803 155.84 72.5431C156.801 72.0059 157.688 71.3385 158.502 70.5409C159.316 69.7433 159.999 68.7748 160.553 67.6353L163.385 69.1003C162.832 70.4026 162.05 71.5502 161.041 72.5431C160.032 73.5361 158.909 74.3744 157.672 75.058C156.434 75.7417 155.124 76.2626 153.74 76.6207C152.357 76.9788 150.998 77.1579 149.663 77.1579C147.286 77.1579 145.105 76.637 143.119 75.5952C141.133 74.5534 139.424 73.1942 137.992 71.5176C136.559 69.841 135.444 67.9365 134.646 65.804C133.849 63.6716 133.45 61.4985 133.45 59.2847ZM172.664 73.8372H192.539V76.8649H169.245V42.1929H192.099V45.2206H172.664V57.7221H189.609V60.6033H172.664V73.8372Z" fill="#1D69AB"/>
<path d="M260.354 31.9892H280.825C286.19 31.9892 290.001 33.1657 292.26 35.5186C293.954 37.3069 294.801 39.5657 294.801 42.2952C294.801 43.2364 294.707 44.2246 294.519 45.2599L293.884 48.6482C293.366 51.3306 292.366 53.4247 290.884 54.9306C289.401 56.4365 288.096 57.1894 286.966 57.1894L286.896 57.7542C288.213 57.7542 289.554 58.4836 290.919 59.9424C292.284 61.4013 292.966 63.1189 292.966 65.0954C292.966 65.8954 292.872 66.7425 292.684 67.6366L292.26 69.8249C291.507 73.872 289.707 77.0485 286.86 79.3544C284.013 81.6603 280.048 82.8132 274.966 82.8132H251.389L260.354 31.9892ZM274.472 62.0601H267.766L266.072 71.8014H272.778C272.872 71.8014 272.966 71.8014 273.06 71.8014C275.225 71.8014 276.942 71.2955 278.213 70.2837C279.484 69.2719 280.119 68.0366 280.119 66.5778C280.119 63.566 278.237 62.0601 274.472 62.0601ZM276.378 43.0011H271.084L269.248 53.5188H274.472C278.99 53.5188 281.248 51.5423 281.248 47.5893C281.248 46.2246 280.837 45.1187 280.013 44.2717C279.19 43.4246 277.978 43.0011 276.378 43.0011ZM325.225 31.4951C336.567 31.4951 342.237 36.1304 342.237 45.4011C342.237 46.954 342.073 48.6247 341.743 50.4129L339.273 64.5307C338.143 71.0719 335.696 75.919 331.931 79.072C328.167 82.225 322.872 83.8015 316.049 83.8015C309.225 83.8015 304.472 82.225 301.79 79.072C299.954 76.9073 299.037 73.919 299.037 70.1072C299.037 68.4131 299.225 66.5542 299.602 64.5307L302.072 50.4129C304.284 37.801 312.002 31.4951 325.225 31.4951ZM317.955 72.8602C320.308 72.8602 322.19 72.2484 323.602 71.0249C325.014 69.8013 326.002 67.5425 326.567 64.2483L328.967 50.6953C329.108 49.7541 329.178 48.907 329.178 48.1541C329.178 44.3423 327.249 42.4364 323.39 42.4364C318.543 42.5305 315.649 45.2834 314.708 50.6953L312.308 64.2483C312.119 65.4248 312.025 66.6484 312.025 67.919C312.025 71.2131 314.002 72.8602 317.955 72.8602ZM380.638 31.9892H395.108L375.202 57.613L386.144 82.8132H371.673L364.755 66.5778L353.108 82.8132H338.637L357.343 57.613L347.602 31.9892H362.073L367.932 48.507L380.638 31.9892Z" fill="white"/>
<path d="M232.49 9.59704V108.584H12.474V9.59704H232.49V9.59704ZM244.964 0.169708H0V118.011H244.964V0.169708Z" fill="#1D69AB"/>
</svg>
